<?xml version="1.0" encoding="UTF-8"?>
<svg xmlns="http://www.w3.org/2000/svg" viewBox="0 0 64 64" width="64" height="64">
  <defs>
    <linearGradient id="cardGrad" x1="0%" y1="0%" x2="0%" y2="100%">
      <stop offset="0%" style="stop-color:#ffffff"/>
      <stop offset="100%" style="stop-color:#e8e8e0"/>
    </linearGradient>
    <linearGradient id="heartGrad" x1="0%" y1="0%" x2="0%" y2="100%">
      <stop offset="0%" style="stop-color:#ff4444"/>
      <stop offset="100%" style="stop-color:#cc0000"/>
    </linearGradient>
    <filter id="shadow" x="-20%" y="-20%" width="140%" height="140%">
      <feDropShadow dx="1" dy="2" stdDeviation="2" flood-opacity="0.3"/>
    </filter>
  </defs>
  <!-- Card background -->
  <rect x="4" y="2" width="56" height="60" rx="6" ry="6" fill="url(#cardGrad)" stroke="#888" stroke-width="1" filter="url(#shadow)"/>
  <!-- Heart symbol -->
  <path d="M32 52 C12 36 12 20 24 16 C30 14 32 20 32 20 C32 20 34 14 40 16 C52 20 52 36 32 52 Z" fill="url(#heartGrad)" stroke="#990000" stroke-width="1"/>
  <!-- Small corner hearts -->
  <path d="M12 12 C8 9 8 6 10.5 5.5 C12 5 12.5 6.5 12.5 6.5 C12.5 6.5 13 5 14.5 5.5 C17 6 17 9 12.5 12 Z" fill="#cc0000"/>
  <path d="M52 52 C56 55 56 58 53.5 58.5 C52 59 51.5 57.5 51.5 57.5 C51.5 57.5 51 59 49.5 58.5 C47 58 47 55 51.5 52 Z" fill="#cc0000"/>
</svg>
